<svg width="2295" height="721" xmlns="http://www.w3.org/2000/svg" xmlns:xlink="http://www.w3.org/1999/xlink" xml:space="preserve" overflow="hidden"><defs><clipPath id="clip0"><rect x="195" y="700" width="2295" height="721"/></clipPath></defs><g clip-path="url(#clip0)" transform="translate(-195 -700)"><text fill="#FFFFFF" font-family="Inter Light,Inter Light_MSFontService,sans-serif" font-weight="300" font-size="147" transform="matrix(1 0 0 1 1536.64 886)">Aquitaine<tspan font-size="147" x="0" y="206">Électronique</tspan><tspan font-size="147" x="0" y="412">Informatique</tspan></text><path d="M522.451 818 713 1296 628.695 1296 572.711 1155.56 392 1155.56 392 1154.23 393.49 1139.61C399.762 1109.29 423.907 1085.41 454.562 1079.2L470.38 1077.63 470.38 1077.25 541.493 1077.25 479.518 921.785Z" fill="#3369E7" fill-rule="evenodd"/><path d="M195 1296 410.57 774 498 774 282.43 1296Z" fill="#FFFFFF" fill-rule="evenodd"/><path d="M830 1218 1109.32 1218 1123.15 1219.4C1153.42 1225.62 1177.27 1249.58 1183.46 1279.99L1185.04 1295.69 1185.98 1295.69 1185.98 1218 1186 1218 1186 1296 830 1296Z" fill="#3369E7" fill-rule="evenodd"/><path d="M830 996 960.81 996 966.244 996.56C996.454 1002.88 1020.25 1027.2 1026.43 1058.07L1028 1074 830 1074Z" fill="#3369E7" fill-rule="evenodd"/><path d="M830 774 1108.58 774 1123.17 775.482C1153.44 781.725 1177.29 805.753 1183.48 836.259L1185.06 852 1186 852 1186 852 830 852Z" fill="#3369E7" fill-rule="evenodd"/><path d="M1325 890 1326.02 890 1340.53 891.489C1370.63 897.757 1394.34 921.887 1400.5 952.523L1402.06 968.33 1403 968.33 1403 1296 1325 1296Z" fill="#3369E7" fill-rule="evenodd"/><rect x="1325" y="774" width="77.9996" height="78" fill="#FFFFFF"/><rect x="830" y="890" width="77.9997" height="107" fill="#FFFFFF"/><rect x="830" y="1110" width="77.9997" height="108" fill="#FFFFFF"/></g></svg>