<?xml version="1.0" encoding="UTF-8" standalone="no"?>
<svg
   width="2295"
   height="721"
   xml:space="preserve"
   overflow="hidden"
   version="1.1"
   id="svg29"
   sodipodi:docname="LOGOTYPE_AEI_AQUITAINE_MONOCHROMIE_FOND_CLAIR.svg"
   inkscape:version="1.2 (dc2aedaf03, 2022-05-15)"
   xmlns:inkscape="http://www.inkscape.org/namespaces/inkscape"
   xmlns:sodipodi="http://sodipodi.sourceforge.net/DTD/sodipodi-0.dtd"
   xmlns="http://www.w3.org/2000/svg"
   xmlns:svg="http://www.w3.org/2000/svg"><sodipodi:namedview
     id="namedview31"
     pagecolor="#ffffff"
     bordercolor="#000000"
     borderopacity="0.25"
     inkscape:showpageshadow="2"
     inkscape:pageopacity="0.0"
     inkscape:pagecheckerboard="0"
     inkscape:deskcolor="#d1d1d1"
     showgrid="false"
     inkscape:zoom="0.68061002"
     inkscape:cx="1148.2346"
     inkscape:cy="360.70583"
     inkscape:window-width="1920"
     inkscape:window-height="1051"
     inkscape:window-x="-9"
     inkscape:window-y="-9"
     inkscape:window-maximized="1"
     inkscape:current-layer="text11" /><defs
     id="defs5"><clipPath
       id="clip0"><rect
         x="2613"
         y="1396"
         width="2295"
         height="721"
         id="rect2" /></clipPath></defs><g
     clip-path="url(#clip0)"
     transform="translate(-2613 -1396)"
     id="g27"><g
       aria-label="AquitaineÉlectroniqueInformatique"
       transform="matrix(1 0 0 1 3954.3 1581)"
       id="text11"
       style="font-weight:300;font-size:147px;font-family:'Inter Light', 'Inter Light_MSFontService', sans-serif"><path
         d="M 14.355469,0 H 4.1239347 L 43.014205,-106.90909 h 10.44034 L 92.344815,0 H 82.113281 L 48.599787,-94.224077 h -0.730824 z m 7.36044,-40.978338 h 53.036932 v 8.769886 H 21.715909 Z"
         id="path314" /><path
         d="m 163.07812,30.068182 v -44.945668 h -0.83522 q -1.61826,3.65412 -4.59375,7.5170457 -2.9755,3.8107244 -7.88246,6.42080962 -4.90696,2.61008518 -12.163,2.61008518 -9.81392,0 -17.27876,-5.2201704 -7.41264,-5.2201705 -11.58878,-14.5642751 -4.12393,-9.344106 -4.12393,-21.768111 0,-12.371804 4.12393,-21.663708 4.17614,-9.344105 11.64098,-14.512074 7.46484,-5.22017 17.38317,-5.22017 7.36044,0 12.163,2.610085 4.85475,2.610085 7.77805,6.42081 2.92329,3.758523 4.54155,7.36044 h 1.09623 v -15.295099 h 9.0831 v 110.25 z M 138.69993,-6.8384233 q 7.77805,0 13.25923,-4.2283377 5.48118,-4.28054 8.35227,-11.745384 2.9233,-7.517045 2.9233,-17.226562 0,-9.605114 -2.87109,-16.965554 -2.8711,-7.412642 -8.35228,-11.588779 -5.42897,-4.228338 -13.31143,-4.228338 -8.03906,0 -13.57244,4.384943 -5.53338,4.332742 -8.35228,11.745384 -2.81889,7.412642 -2.81889,16.652344 0,9.344105 2.87109,16.86115 2.8711,7.517046 8.40448,11.954191 5.53338,4.3849427 13.46804,4.3849427 z"
         id="path316" /><path
         d="m 247.85367,-30.642401 v -49.539417 h 9.2919 V 0 h -9.2919 v -13.311435 h -0.73082 q -2.8189,6.1598015 -8.9265,10.2837361 -6.1076,4.071733 -14.92968,4.071733 -7.67365,0 -13.62465,-3.3409091 -5.95099,-3.3931108 -9.3441,-9.918324 -3.39311,-6.525213 -3.39311,-16.025923 v -51.940696 h 9.2919 v 51.366477 q 0,9.396307 5.53338,15.138494 5.53338,5.6899862 14.19886,5.6899862 5.42898,0 10.44034,-2.6100852 5.01137,-2.610085 8.24787,-7.621449 3.23651,-5.063565 3.23651,-12.424006 z"
         id="path318" /><path
         d="m 281.78471,0 v -80.181818 h 9.3441 V 0 Z m 4.75035,-93.963068 q -2.87109,0 -4.90696,-1.931463 -2.03586,-1.983665 -2.03586,-4.750359 0,-2.76669 2.03586,-4.69815 2.03587,-1.98366 4.90696,-1.98366 2.8711,0 4.90696,1.98366 2.03587,1.93146 2.03587,4.69815 0,2.766694 -2.03587,4.750359 -2.03586,1.931463 -4.90696,1.931463 z"
         id="path320" /><path
         d="m 347.3501,-80.181818 v 8.091264 h -38.26385 v -8.091264 z m -26.30966,-19.210227 h 9.34411 v 78.459161 q 0,5.011364 1.72266,7.882458 1.72265,2.818892 4.48934,4.0195311 2.76669,1.1484375 5.89879,1.1484375 1.82706,0 3.13211,-0.2088068 1.30504,-0.2610085 2.29687,-0.5220171 l 1.98367,8.40447448 q -1.35725,0.52201705 -3.34091,0.93963068 -1.98367,0.46981534 -4.90696,0.46981534 -5.11577,0 -9.86612,-2.2446733 -4.69816,-2.2446733 -7.72586,-6.6818182 -3.0277,-4.4371447 -3.0277,-11.0145597 z"
         id="path322" /><path
         d="m 390.83402,1.8270597 q -7.25604,0 -13.25923,-2.81889209 -6.0032,-2.87109371 -9.55291,-8.24786931 -3.54972,-5.4289773 -3.54972,-13.1548293 0,-5.950995 2.24467,-10.022728 2.24468,-4.071732 6.36861,-6.681818 4.12394,-2.610085 9.76172,-4.123934 5.63778,-1.51385 12.42401,-2.349077 6.73402,-0.835227 11.37997,-1.461648 4.69815,-0.62642 7.15163,-1.983665 2.45348,-1.357244 2.45348,-4.384943 v -1.879261 q 0,-8.195668 -4.90696,-12.893821 -4.85476,-4.750355 -13.99006,-4.750355 -8.66548,0 -14.14666,3.810724 -5.42898,3.810725 -7.62145,8.978693 l -8.82209,-3.184304 q 2.71449,-6.577414 7.51705,-10.492542 4.80256,-3.96733 10.75355,-5.689986 5.951,-1.774858 12.05859,-1.774858 4.59375,0 9.55292,1.200639 5.01136,1.200639 9.2919,4.176137 4.28054,2.923295 6.94283,8.195667 2.66228,5.220171 2.66228,13.259233 V 0 h -9.2919 v -12.685014 h -0.57422 q -1.67045,3.5497157 -4.95916,6.8906248 -3.28871,3.3409091 -8.24787,5.48117897 -4.95916,2.14026993 -11.64098,2.14026993 z m 1.25284,-8.5088779 q 7.41264,0 12.84162,-3.2887074 5.42898,-3.2887074 8.35227,-8.7176844 2.9755,-5.481179 2.9755,-12.058594 v -11.588778 q -1.04403,0.991832 -3.49751,1.774858 -2.40128,0.783025 -5.58559,1.409446 -3.1321,0.574218 -6.2642,0.991832 -3.1321,0.417614 -5.63778,0.730824 -6.78623,0.835227 -11.58878,2.610085 -4.80256,1.774858 -7.36044,4.90696 -2.55789,3.079901 -2.55789,7.934659 0,7.308239 5.22017,11.32777 5.22017,3.9673298 13.10263,3.9673298 z"
         id="path324" /><path
         d="m 450.34397,0 v -80.181818 h 9.34411 V 0 Z m 4.75036,-93.963068 q -2.8711,0 -4.90696,-1.931463 -2.03587,-1.983665 -2.03587,-4.750359 0,-2.76669 2.03587,-4.69815 2.03586,-1.98366 4.90696,-1.98366 2.87109,0 4.90696,1.98366 2.03586,1.93146 2.03586,4.69815 0,2.766694 -2.03586,4.750359 -2.03587,1.931463 -4.90696,1.931463 z"
         id="path326" /><path
         d="M 493.61927,-50.113636 V 0 h -9.2919 v -80.181818 h 9.03089 v 12.580611 h 0.83523 q 2.81889,-6.159802 8.76989,-9.866123 6.00319,-3.758522 14.82528,-3.758522 8.09126,0 14.19886,3.393111 6.1598,3.340909 9.55292,9.866122 3.44531,6.525213 3.44531,16.025923 V 0 h -9.29191 v -51.366477 q 0,-9.866122 -5.53338,-15.60831 -5.48117,-5.742187 -14.72088,-5.742187 -6.3164,0 -11.22336,2.714488 -4.90696,2.714489 -7.77806,7.830256 -2.81889,5.063565 -2.81889,12.058594 z"
         id="path328" /><path
         d="m 601.93789,1.6704545 q -11.22336,0 -19.41903,-5.2201704 -8.19567,-5.2723722 -12.68501,-14.5642751 -4.43715,-9.344106 -4.43715,-21.507103 0,-12.110795 4.43715,-21.507102 4.48934,-9.448509 12.3718,-14.773082 7.93466,-5.376776 18.3228,-5.376776 6.52521,0 12.58061,2.401278 6.0554,2.349077 10.85795,7.256037 4.85476,4.854759 7.67365,12.267401 2.8189,7.36044 2.8189,17.435369 v 4.59375 h -62.64205 v -8.195667 h 53.14134 q 0,-7.725853 -3.13211,-13.885654 -3.0799,-6.212003 -8.61328,-9.81392 -5.48118,-3.601918 -12.68501,-3.601918 -7.62145,0 -13.41584,4.071733 -5.79439,4.071733 -9.0831,10.753551 -3.2365,6.681818 -3.2887,14.616478 v 4.90696 q 0,9.552912 3.2887,16.704545 3.34091,7.099432 9.44851,11.01456 6.1076,3.9151277 14.45987,3.9151277 5.68999,0 9.97053,-1.774858 4.33274,-1.7748577 7.25604,-4.7503547 2.97549,-3.027699 4.48934,-6.629617 l 8.82209,2.871094 q -1.82706,5.063565 -6.00319,9.344105 -4.12394,4.2805398 -10.33594,6.89062502 -6.1598,2.55788348 -14.19887,2.55788348 z"
         id="path330" /><path
         d="M 14.198864,206 V 99.090909 H 76.214489 V 107.8608 H 23.960582 v 40.24751 h 48.965199 v 8.76989 H 23.960582 v 40.35191 H 77.258523 V 206 Z M 40.873935,87.971946 54.237571,64.272372 h 11.01456 L 49.226207,87.971946 Z"
         id="path332" /><path
         d="M 108.7884,99.090909 V 206 H 99.496496 V 99.090909 Z"
         id="path334" /><path
         d="m 165.74051,207.67045 q -11.22337,0 -19.41904,-5.22017 -8.19567,-5.27237 -12.68501,-14.56427 -4.43715,-9.34411 -4.43715,-21.5071 0,-12.1108 4.43715,-21.50711 4.48934,-9.4485 12.3718,-14.77308 7.93466,-5.37677 18.3228,-5.37677 6.52521,0 12.58061,2.40127 6.0554,2.34908 10.85796,7.25604 4.85475,4.85476 7.67365,12.2674 2.81889,7.36044 2.81889,17.43537 v 4.59375 h -62.64205 v -8.19567 h 53.14134 q 0,-7.72585 -3.1321,-13.88565 -3.0799,-6.212 -8.61329,-9.81392 -5.48117,-3.60192 -12.68501,-3.60192 -7.62145,0 -13.41584,4.07174 -5.79439,4.07173 -9.08309,10.75355 -3.23651,6.68181 -3.28871,14.61647 v 4.90696 q 0,9.55292 3.28871,16.70455 3.3409,7.09943 9.4485,11.01456 6.1076,3.91513 14.45988,3.91513 5.68998,0 9.97052,-1.77486 4.33274,-1.77486 7.25604,-4.75036 2.9755,-3.0277 4.48935,-6.62961 l 8.82208,2.87109 q -1.82706,5.06357 -6.00319,9.34411 -4.12394,4.28054 -10.33594,6.89062 -6.1598,2.55788 -14.19886,2.55788 z"
         id="path336" /><path
         d="m 249.99399,207.67045 q -10.75355,0 -18.74042,-5.37677 -7.93465,-5.37678 -12.3196,-14.72088 -4.38494,-9.34411 -4.38494,-21.2983 0,-12.05859 4.43714,-21.4549 4.48935,-9.3963 12.42401,-14.72088 7.93466,-5.37677 18.4272,-5.37677 8.03906,0 14.56428,3.1321 6.52521,3.0799 10.75355,8.71768 4.28054,5.58559 5.37677,13.05043 h -9.3963 q -1.46165,-6.78622 -7.04723,-11.58878 -5.53338,-4.85476 -14.09446,-4.85476 -7.67365,0 -13.57245,4.17614 -5.89879,4.12393 -9.2397,11.53658 -3.28871,7.36044 -3.28871,17.06995 0,9.76172 3.23651,17.27877 3.23651,7.46484 9.0831,11.69318 5.89879,4.22834 13.78125,4.22834 5.32457,0 9.70951,-1.98367 4.43715,-2.03586 7.41265,-5.74219 3.02769,-3.70632 4.07173,-8.82208 h 9.39631 q -1.04404,7.25603 -5.16797,12.94602 -4.07174,5.63778 -10.59695,8.87429 -6.47301,3.2365 -14.82528,3.2365 z"
         id="path338" /><path
         d="m 332.05509,125.81818 v 8.09127 h -38.26385 v -8.09127 z m -26.30966,-19.21023 h 9.34411 v 78.45917 q 0,5.01136 1.72265,7.88245 1.72266,2.8189 4.48935,4.01954 2.76669,1.14843 5.89879,1.14843 1.82706,0 3.1321,-0.2088 1.30505,-0.26101 2.29688,-0.52202 l 1.98366,8.40447 q -1.35724,0.52202 -3.34091,0.93963 -1.98366,0.46982 -4.90696,0.46982 -5.11576,0 -9.86612,-2.24467 -4.69815,-2.24468 -7.72585,-6.68182 -3.0277,-4.43715 -3.0277,-11.01456 z"
         id="path340" /><path
         d="m 353.14445,206 v -80.18182 h 9.03089 v 12.3196 h 0.67862 q 2.40128,-6.05539 8.35228,-9.76171 6.00319,-3.75853 13.57244,-3.75853 1.14844,0 2.55788,0.0522 1.40945,0.0522 2.34908,0.10441 v 9.44851 q -0.62642,-0.10441 -2.19247,-0.31321 -1.56605,-0.20881 -3.39311,-0.20881 -6.26421,0 -11.17117,2.66229 -4.85476,2.61008 -7.67365,7.25603 -2.81889,4.64595 -2.81889,10.59695 V 206 Z"
         id="path342" /><path
         d="m 434.21374,207.67045 q -10.38814,0 -18.375,-5.27237 -7.93466,-5.27237 -12.42401,-14.56427 -4.48934,-9.34411 -4.48934,-21.55931 0,-12.3196 4.48934,-21.6637 4.48935,-9.39631 12.42401,-14.61648 7.98686,-5.27237 18.375,-5.27237 10.38814,0 18.3228,5.27237 7.93466,5.27237 12.424,14.61648 4.54155,9.3441 4.54155,21.6637 0,12.2152 -4.48934,21.55931 -4.48935,9.2919 -12.47621,14.56427 -7.93466,5.27237 -18.3228,5.27237 z m 0,-8.50887 q 8.35227,0 14.14666,-4.48935 5.79439,-4.48935 8.76989,-11.95419 3.0277,-7.46484 3.0277,-16.44354 0,-8.97869 -3.0277,-16.49574 -2.9755,-7.51704 -8.76989,-12.05859 -5.79439,-4.54155 -14.14666,-4.54155 -8.30007,0 -14.14666,4.54155 -5.79439,4.54155 -8.82209,12.05859 -2.9755,7.51705 -2.9755,16.49574 0,8.9787 2.9755,16.44354 3.0277,7.46484 8.82209,11.95419 5.79439,4.48935 14.14666,4.48935 z"
         id="path344" /><path
         d="M 499.20499,155.88636 V 206 h -9.2919 v -80.18182 h 9.0309 v 12.58061 h 0.83522 q 2.8189,-6.1598 8.76989,-9.86612 6.0032,-3.75852 14.82528,-3.75852 8.09127,0 14.19887,3.39311 6.1598,3.34091 9.55291,9.86612 3.44531,6.52521 3.44531,16.02592 V 206 h -9.2919 v -51.36648 q 0,-9.86612 -5.53338,-15.60831 -5.48118,-5.74218 -14.72088,-5.74218 -6.31641,0 -11.22337,2.71448 -4.90696,2.71449 -7.77805,7.83026 -2.8189,5.06357 -2.8189,12.05859 z"
         id="path346" /><path
         d="m 575.21073,206 v -80.18182 h 9.34411 V 206 Z m 4.75036,-93.96307 q -2.8711,0 -4.90696,-1.93146 -2.03587,-1.98367 -2.03587,-4.75036 0,-2.76669 2.03587,-4.69815 2.03586,-1.983665 4.90696,-1.983665 2.87109,0 4.90696,1.983665 2.03586,1.93146 2.03586,4.69815 0,2.76669 -2.03586,4.75036 -2.03587,1.93146 -4.90696,1.93146 z"
         id="path348" /><path
         d="m 663.53613,236.06818 v -44.94567 h -0.83522 q -1.61826,3.65412 -4.59375,7.51705 -2.9755,3.81072 -7.88246,6.42081 -4.90696,2.61008 -12.163,2.61008 -9.81392,0 -17.27876,-5.22017 -7.41265,-5.22017 -11.58878,-14.56427 -4.12394,-9.34411 -4.12394,-21.76811 0,-12.37181 4.12394,-21.66371 4.17613,-9.3441 11.64098,-14.51207 7.46484,-5.22017 17.38317,-5.22017 7.36044,0 12.16299,2.61008 4.85476,2.61009 7.77806,6.42081 2.92329,3.75852 4.54155,7.36044 h 1.09623 v -15.2951 h 9.0831 v 110.25 z m -24.37819,-36.9066 q 7.77805,0 13.25923,-4.22834 5.48118,-4.28054 8.35227,-11.74538 2.9233,-7.51705 2.9233,-17.22657 0,-9.60511 -2.8711,-16.96555 -2.87109,-7.41264 -8.35227,-11.58878 -5.42898,-4.22834 -13.31143,-4.22834 -8.03907,0 -13.57245,4.38495 -5.53338,4.33274 -8.35227,11.74538 -2.81889,7.41264 -2.81889,16.65234 0,9.34411 2.87109,16.86115 2.8711,7.51705 8.40448,11.95419 5.53338,4.38495 13.46804,4.38495 z"
         id="path350" /><path
         d="m 748.31166,175.3576 v -49.53942 h 9.29191 V 206 h -9.29191 v -13.31143 h -0.73082 q -2.81889,6.1598 -8.92649,10.28373 -6.1076,4.07173 -14.92969,4.07173 -7.67365,0 -13.62465,-3.34091 -5.95099,-3.39311 -9.3441,-9.91832 -3.39311,-6.52521 -3.39311,-16.02592 v -51.9407 h 9.2919 v 51.36648 q 0,9.39631 5.53338,15.13849 5.53338,5.68999 14.19887,5.68999 5.42897,0 10.44034,-2.61009 5.01136,-2.61008 8.24787,-7.62144 3.2365,-5.06357 3.2365,-12.42401 z"
         id="path352" /><path
         d="m 814.55557,207.67045 q -11.22337,0 -19.41903,-5.22017 -8.19567,-5.27237 -12.68502,-14.56427 -4.43714,-9.34411 -4.43714,-21.5071 0,-12.1108 4.43714,-21.50711 4.48935,-9.4485 12.37181,-14.77308 7.93465,-5.37677 18.32279,-5.37677 6.52522,0 12.58061,2.40127 6.0554,2.34908 10.85796,7.25604 4.85476,4.85476 7.67365,12.2674 2.81889,7.36044 2.81889,17.43537 v 4.59375 h -62.64204 v -8.19567 h 53.14133 q 0,-7.72585 -3.1321,-13.88565 -3.0799,-6.212 -8.61328,-9.81392 -5.48118,-3.60192 -12.68502,-3.60192 -7.62145,0 -13.41583,4.07174 -5.79439,4.07173 -9.0831,10.75355 -3.23651,6.68181 -3.28871,14.61647 v 4.90696 q 0,9.55292 3.28871,16.70455 3.34091,7.09943 9.44851,11.01456 6.1076,3.91513 14.45987,3.91513 5.68999,0 9.97053,-1.77486 4.33274,-1.77486 7.25603,-4.75036 2.9755,-3.0277 4.48935,-6.62961 l 8.82209,2.87109 q -1.82706,5.06357 -6.0032,9.34411 -4.12393,4.28054 -10.33594,6.89062 -6.1598,2.55788 -14.19886,2.55788 z"
         id="path354" /><path
         d="M 23.960582,305.09091 V 412 H 14.198864 V 305.09091 Z"
         id="path356" /><path
         d="M 59.718774,361.88636 V 412 H 50.42687 v -80.18182 h 9.030895 v 12.58061 h 0.835227 q 2.818892,-6.1598 8.769887,-9.86612 6.003196,-3.75852 14.825284,-3.75852 8.091264,0 14.198863,3.39311 6.159804,3.34091 9.552914,9.86612 3.44531,6.52521 3.44531,16.02592 V 412 h -9.2919 v -51.36648 q 0,-9.86612 -5.533383,-15.60831 -5.481179,-5.74218 -14.720881,-5.74218 -6.316406,0 -11.223366,2.71448 -4.906961,2.71449 -7.778054,7.83026 -2.818892,5.06357 -2.818892,12.05859 z"
         id="path358" /><path
         d="m 168.61161,331.81818 v 8.09127 h -39.41229 v -8.09127 z M 141.51892,412 v -91.9272 q 0,-6.47301 2.9755,-10.91016 3.0277,-4.43714 7.88246,-6.73402 4.85476,-2.29687 10.28373,-2.29687 3.65412,0 6.0554,0.62642 2.45348,0.57422 3.86293,1.14844 l -2.71449,8.14346 q -1.04404,-0.31321 -2.55788,-0.73082 -1.51385,-0.41762 -3.81073,-0.41762 -6.0554,0 -9.3441,3.39311 -3.28871,3.39312 -3.28871,9.70952 L 150.81083,412 Z"
         id="path360" /><path
         d="m 215.01892,413.67045 q -10.38814,0 -18.375,-5.27237 -7.93466,-5.27237 -12.42401,-14.56427 -4.48935,-9.34411 -4.48935,-21.55931 0,-12.3196 4.48935,-21.6637 4.48935,-9.39631 12.42401,-14.61648 7.98686,-5.27237 18.375,-5.27237 10.38813,0 18.32279,5.27237 7.93466,5.27237 12.42401,14.61648 4.54155,9.3441 4.54155,21.6637 0,12.2152 -4.48935,21.55931 -4.48935,9.2919 -12.47621,14.56427 -7.93466,5.27237 -18.32279,5.27237 z m 0,-8.50887 q 8.35227,0 14.14666,-4.48935 5.79439,-4.48935 8.76988,-11.95419 3.0277,-7.46484 3.0277,-16.44354 0,-8.97869 -3.0277,-16.49574 -2.97549,-7.51704 -8.76988,-12.05859 -5.79439,-4.54155 -14.14666,-4.54155 -8.30008,0 -14.14667,4.54155 -5.79439,4.54155 -8.82208,12.05859 -2.9755,7.51705 -2.9755,16.49574 0,8.9787 2.9755,16.44354 3.02769,7.46484 8.82208,11.95419 5.79439,4.48935 14.14667,4.48935 z"
         id="path362" /><path
         d="m 270.71827,412 v -80.18182 h 9.03089 v 12.3196 h 0.67862 q 2.40128,-6.05539 8.35228,-9.76171 6.00319,-3.75853 13.57244,-3.75853 1.14844,0 2.55788,0.0522 1.40945,0.0522 2.34908,0.10441 v 9.44851 q -0.62642,-0.10441 -2.19247,-0.31321 -1.56605,-0.20881 -3.39311,-0.20881 -6.26421,0 -11.17117,2.66229 -4.85476,2.61008 -7.67365,7.25603 -2.81889,4.64595 -2.81889,10.59695 V 412 Z"
         id="path364" /><path
         d="m 323.12891,412 v -80.18182 h 9.0309 v 12.3196 h 0.83522 q 2.40128,-6.212 7.98686,-9.76171 5.63779,-3.60192 13.52025,-3.60192 8.30007,0 13.62464,3.91513 5.37678,3.86292 8.03906,10.64914 h 0.67863 q 2.71448,-6.68181 8.82208,-10.59694 6.1598,-3.96733 14.92969,-3.96733 11.17117,0 17.64418,7.04723 6.47301,6.99503 6.47301,20.46307 V 412 h -9.2919 v -53.71555 q 0,-9.50071 -4.85476,-14.25107 -4.85476,-4.75035 -12.78942,-4.75035 -9.1875,0 -14.14666,5.63778 -4.95916,5.63778 -4.95916,14.30327 V 412 h -9.50071 v -54.55078 q 0,-8.14347 -4.54155,-13.15483 -4.54155,-5.01136 -12.78942,-5.01136 -5.53338,0 -9.97053,2.71448 -4.38494,2.71449 -6.94282,7.56925 -2.50568,4.80256 -2.50568,11.06676 V 412 Z"
         id="path366" /><path
         d="m 471.64268,413.82706 q -7.25604,0 -13.25924,-2.81889 -6.00319,-2.8711 -9.55291,-8.24787 -3.54972,-5.42898 -3.54972,-13.15483 0,-5.951 2.24468,-10.02273 2.24467,-4.07173 6.36861,-6.68182 4.12393,-2.61008 9.76171,-4.12393 5.63779,-1.51385 12.42401,-2.34908 6.73402,-0.83523 11.37997,-1.46165 4.69816,-0.62642 7.15164,-1.98366 2.45348,-1.35724 2.45348,-4.38494 v -1.87927 q 0,-8.19566 -4.90696,-12.89382 -4.85476,-4.75035 -13.99006,-4.75035 -8.66548,0 -14.14666,3.81072 -5.42898,3.81073 -7.62145,8.9787 l -8.82209,-3.18431 q 2.71449,-6.57741 7.51704,-10.49254 4.80256,-3.96733 10.75356,-5.68999 5.95099,-1.77485 12.05859,-1.77485 4.59375,0 9.55291,1.20064 5.01137,1.20063 9.29191,4.17613 4.28053,2.9233 6.94282,8.19567 2.66229,5.22017 2.66229,13.25923 V 412 h -9.2919 v -12.68501 h -0.57422 q -1.67046,3.54971 -4.95917,6.89062 -3.2887,3.34091 -8.24786,5.48118 -4.95917,2.14027 -11.64098,2.14027 z m 1.25284,-8.50888 q 7.41264,0 12.84162,-3.28871 5.42897,-3.2887 8.35227,-8.71768 2.9755,-5.48118 2.9755,-12.05859 v -11.58878 q -1.04404,0.99183 -3.49752,1.77486 -2.40128,0.78302 -5.58558,1.40944 -3.1321,0.57422 -6.26421,0.99183 -3.1321,0.41762 -5.63778,0.73083 -6.78622,0.83523 -11.58878,2.61008 -4.80256,1.77486 -7.36044,4.90696 -2.55788,3.0799 -2.55788,7.93466 0,7.30824 5.22017,11.32777 5.22017,3.96733 13.10263,3.96733 z"
         id="path368" /><path
         d="m 562.63025,331.81818 v 8.09127 h -38.26384 v -8.09127 z M 536.3206,312.60795 h 9.3441 v 78.45917 q 0,5.01136 1.72266,7.88245 1.72265,2.8189 4.48934,4.01954 2.76669,1.14843 5.8988,1.14843 1.82706,0 3.1321,-0.2088 1.30504,-0.26101 2.29687,-0.52202 l 1.98367,8.40447 q -1.35725,0.52202 -3.34091,0.93963 -1.98367,0.46982 -4.90696,0.46982 -5.11577,0 -9.86612,-2.24467 -4.69816,-2.24468 -7.72586,-6.68182 -3.02769,-4.43715 -3.02769,-11.01456 z"
         id="path370" /><path
         d="m 583.82401,412 v -80.18182 h 9.34411 V 412 Z m 4.75036,-93.96307 q -2.8711,0 -4.90696,-1.93146 -2.03587,-1.98367 -2.03587,-4.75036 0,-2.76669 2.03587,-4.69815 2.03586,-1.98366 4.90696,-1.98366 2.87109,0 4.90696,1.98366 2.03587,1.93146 2.03587,4.69815 0,2.76669 -2.03587,4.75036 -2.03587,1.93146 -4.90696,1.93146 z"
         id="path372" /><path
         d="m 672.14941,442.06818 v -44.94567 h -0.83522 q -1.61826,3.65412 -4.59375,7.51705 -2.9755,3.81072 -7.88246,6.42081 -4.90696,2.61008 -12.163,2.61008 -9.81392,0 -17.27876,-5.22017 -7.41264,-5.22017 -11.58878,-14.56427 -4.12394,-9.34411 -4.12394,-21.76811 0,-12.37181 4.12394,-21.66371 4.17614,-9.3441 11.64098,-14.51207 7.46484,-5.22017 17.38317,-5.22017 7.36044,0 12.16299,2.61008 4.85476,2.61009 7.77806,6.42081 2.92329,3.75852 4.54155,7.36044 h 1.09623 v -15.2951 h 9.0831 v 110.25 z m -24.37819,-36.9066 q 7.77805,0 13.25923,-4.22834 5.48118,-4.28054 8.35227,-11.74538 2.9233,-7.51705 2.9233,-17.22657 0,-9.60511 -2.87109,-16.96555 -2.8711,-7.41264 -8.35228,-11.58878 -5.42897,-4.22834 -13.31143,-4.22834 -8.03906,0 -13.57245,4.38495 -5.53338,4.33274 -8.35227,11.74538 -2.81889,7.41264 -2.81889,16.65234 0,9.34411 2.87109,16.86115 2.8711,7.51705 8.40448,11.95419 5.53338,4.38495 13.46804,4.38495 z"
         id="path374" /><path
         d="m 756.92494,381.3576 v -49.53942 h 9.29191 V 412 h -9.29191 v -13.31143 h -0.73082 q -2.81889,6.1598 -8.92649,10.28373 -6.1076,4.07173 -14.92969,4.07173 -7.67365,0 -13.62464,-3.34091 -5.951,-3.39311 -9.34411,-9.91832 -3.39311,-6.52521 -3.39311,-16.02592 v -51.9407 h 9.2919 v 51.36648 q 0,9.39631 5.53338,15.13849 5.53338,5.68999 14.19887,5.68999 5.42897,0 10.44034,-2.61009 5.01136,-2.61008 8.24787,-7.62144 3.2365,-5.06357 3.2365,-12.42401 z"
         id="path376" /><path
         d="m 823.16885,413.67045 q -11.22337,0 -19.41903,-5.22017 -8.19567,-5.27237 -12.68502,-14.56427 -4.43714,-9.34411 -4.43714,-21.5071 0,-12.1108 4.43714,-21.50711 4.48935,-9.4485 12.37181,-14.77308 7.93466,-5.37677 18.32279,-5.37677 6.52522,0 12.58062,2.40127 6.05539,2.34908 10.85795,7.25604 4.85476,4.85476 7.67365,12.2674 2.81889,7.36044 2.81889,17.43537 v 4.59375 h -62.64204 v -8.19567 h 53.14133 q 0,-7.72585 -3.1321,-13.88565 -3.0799,-6.212 -8.61328,-9.81392 -5.48118,-3.60192 -12.68502,-3.60192 -7.62144,0 -13.41583,4.07174 -5.79439,4.07173 -9.0831,10.75355 -3.23651,6.68181 -3.28871,14.61647 v 4.90696 q 0,9.55292 3.28871,16.70455 3.34091,7.09943 9.44851,11.01456 6.1076,3.91513 14.45987,3.91513 5.68999,0 9.97053,-1.77486 4.33274,-1.77486 7.25603,-4.75036 2.9755,-3.0277 4.48935,-6.62961 l 8.82209,2.87109 q -1.82706,5.06357 -6.0032,9.34411 -4.12393,4.28054 -10.33594,6.89062 -6.1598,2.55788 -14.19886,2.55788 z"
         id="path378" /></g><path
       d="M2940.45 1514 3131 1992 3046.7 1992 2990.71 1851.56 2810 1851.56 2810 1850.23 2811.49 1835.61C2817.76 1805.29 2841.91 1781.41 2872.56 1775.2L2888.38 1773.63 2888.38 1773.25 2959.49 1773.25 2897.52 1617.78Z"
       fill-rule="evenodd"
       id="path13" /><path
       d="M2613 1992 2828.57 1470 2916 1470 2700.43 1992Z"
       fill-rule="evenodd"
       id="path15" /><path
       d="M3247 1470 3526.36 1470 3540.99 1471.48C3571.35 1477.72 3595.26 1501.75 3601.47 1532.26L3603.05 1548 3604 1548 3604 1548 3247 1548Z"
       fill-rule="evenodd"
       id="path17" /><path
       d="M3742 1586 3743.04 1586 3757.73 1587.49C3788.22 1593.76 3812.23 1617.89 3818.46 1648.52L3820.05 1664.33 3821 1664.33 3821 1992 3742 1992Z"
       fill-rule="evenodd"
       id="path19" /><rect
       x="3742"
       y="1470"
       width="79"
       height="78"
       id="rect21" /><path
       d="M3247 1586 3325.68 1586 3325.68 1691.72 3378.47 1691.72 3383.93 1692.27C3414.29 1698.53 3438.21 1722.63 3444.42 1753.22L3446 1769 3247 1769 3247 1692.33 3247 1691.72Z"
       fill-rule="evenodd"
       id="path23" /><path
       d="M3247.02 1913.35 3527.11 1913.35 3540.98 1914.76C3571.33 1921.03 3595.24 1945.19 3601.46 1975.86L3603.03 1991.69 3603.98 1991.69 3603.98 1913.35 3604 1913.35 3604 1992 3247.02 1992ZM3247 1806 3325.66 1806 3325.66 1913.27 3247 1913.27Z"
       fill-rule="evenodd"
       id="path25" /></g></svg>
