<?xml version="1.0" encoding="UTF-8" standalone="no"?>
<svg
   width="1663"
   height="598"
   xml:space="preserve"
   overflow="hidden"
   version="1.1"
   id="svg31"
   sodipodi:docname="LOGOTYPE_AEI_JUNIOR_BICHROMIE_FOND_FONCE.svg"
   inkscape:version="1.2 (dc2aedaf03, 2022-05-15)"
   xmlns:inkscape="http://www.inkscape.org/namespaces/inkscape"
   xmlns:sodipodi="http://sodipodi.sourceforge.net/DTD/sodipodi-0.dtd"
   xmlns="http://www.w3.org/2000/svg"
   xmlns:svg="http://www.w3.org/2000/svg"><sodipodi:namedview
     id="namedview33"
     pagecolor="#ffffff"
     bordercolor="#000000"
     borderopacity="0.25"
     inkscape:showpageshadow="2"
     inkscape:pageopacity="0.0"
     inkscape:pagecheckerboard="0"
     inkscape:deskcolor="#d1d1d1"
     showgrid="false"
     inkscape:zoom="0.66416163"
     inkscape:cx="880.05686"
     inkscape:cy="350.06539"
     inkscape:window-width="1920"
     inkscape:window-height="1051"
     inkscape:window-x="-9"
     inkscape:window-y="-9"
     inkscape:window-maximized="1"
     inkscape:current-layer="g29" /><defs
     id="defs5"><clipPath
       id="clip0"><rect
         x="1989"
         y="53"
         width="1663"
         height="598"
         id="rect2" /></clipPath></defs><g
     clip-path="url(#clip0)"
     transform="translate(-1989 -53)"
     id="g29"><path
       d="M2770.68 172 2813 278.385 2813.29 278.385 2962 651 2877.06 651 2821.08 510.719 2641 510.719 2641 509.39 2642.49 494.79C2648.76 464.502 2672.91 440.647 2703.57 434.449L2719.39 432.874 2719.39 432.496 2789.86 432.496 2728.36 278.385 2728.36 278.385 2728.36 278.385 2728.36 278.385 2728.36 278.385Z"
       fill="#3369E7"
       fill-rule="evenodd"
       id="path7" /><path
       d="M2444 651 2659.57 129 2747 129 2531.43 651Z"
       fill="#FFFFFF"
       fill-rule="evenodd"
       id="path9" /><path
       d="M3079 573 3358.32 573 3372.15 574.401C3402.42 580.624 3426.27 604.58 3432.46 634.995L3434.04 650.688 3434.98 650.688 3434.98 573 3435 573 3435 651 3079 651Z"
       fill="#3369E7"
       fill-rule="evenodd"
       id="path11" /><path
       d="M3079 351 3209.81 351 3215.24 351.56C3245.45 357.877 3269.25 382.195 3275.43 413.07L3277 429 3079 429Z"
       fill="#3369E7"
       fill-rule="evenodd"
       id="path13" /><path
       d="M3079 129 3357.58 129 3372.17 130.482C3402.44 136.724 3426.29 160.752 3432.48 191.259L3434.06 207 3435 207 3435 207 3079 207Z"
       fill="#3369E7"
       fill-rule="evenodd"
       id="path15" /><path
       d="M3574 245 3575.02 245 3589.53 246.489C3619.63 252.758 3643.34 276.887 3649.5 307.523L3651.06 323.33 3652 323.33 3652 651 3574 651Z"
       fill="#3369E7"
       fill-rule="evenodd"
       id="path17" /><rect
       x="3574"
       y="129"
       width="78"
       height="78"
       fill="#FFFFFF"
       id="rect19" /><rect
       x="3079"
       y="245"
       width="78"
       height="107"
       fill="#FFFFFF"
       id="rect21" /><rect
       x="3079"
       y="465"
       width="78"
       height="108"
       fill="#FFFFFF"
       id="rect23" /><g
       aria-label="JUNIORDepuis 1987"
       transform="matrix(1 0 0 1 2067.5 224)"
       id="text27"
       style="font-weight:300;font-size:130px;font-family:'Inter Light', 'Inter Light_MSFontService', sans-serif;fill:#ffffff"><path
         d="m 48.380682,-94.545455 h 8.632812 v 68.18537 q -0.04616,9.232954 -3.323863,15.419034 -3.277699,6.1399146 -9.048296,9.1867896 -5.770596,3.046875 -13.24929,3.046875 -7.340198,0 -13.110795,-2.7237216 Q 12.510653,-4.1548295 9.1867898,-9.0944602 5.9090909,-14.034091 5.9090909,-20.681818 h 8.4943181 q 0,4.200994 2.215909,7.432528 2.215909,3.18537 6.047585,4.9857957 3.877841,1.8004261 8.725142,1.8004261 5.031961,0 8.817472,-2.1235795 3.831676,-2.1235793 6.00142,-6.5092333 2.169745,-4.431818 2.169745,-11.264204 z"
         id="path316" /><path
         d="m 145.14205,-94.545455 h 8.63281 v 62.599432 q 0,9.648438 -4.52415,17.265625 -4.52415,7.571023 -12.60298,11.9566764 -8.03267,4.3394886 -18.69674,4.3394886 -10.61789,0 -18.696729,-4.3856534 -8.078835,-4.3856534 -12.602983,-11.9566766 -4.524147,-7.571022 -4.524147,-17.21946 v -62.599432 h 8.632812 v 61.99929 q 0,7.524858 3.370029,13.433949 3.370028,5.862926 9.463778,9.2329546 6.13991,3.3700284 14.35724,3.3700284 8.21733,0 14.35725,-3.3700284 6.13991,-3.3700286 9.46378,-9.2329546 3.37003,-5.909091 3.37003,-13.433949 z"
         id="path318" /><path
         d="M 252.52128,-94.545455 V 0 h -8.40199 l -55.85937,-79.172585 h -0.73864 V 0 h -8.63281 v -94.545455 h 8.35582 l 56.04404,79.264915 h 0.73863 v -79.264915 z"
         id="path320" /><path
         d="M 286.26776,-94.545455 V 0 h -8.63282 v -94.545455 z"
         id="path322" /><path
         d="m 388.89206,-47.272727 q 0,14.772727 -5.26279,25.713778 -5.26278,10.894886 -14.49574,16.896307 -9.18679,5.9552556 -21.14346,5.9552556 -11.95668,0 -21.18963,-5.9552556 -9.18679,-6.001421 -14.44958,-16.896307 -5.21662,-10.941051 -5.21662,-25.713778 0,-14.772728 5.21662,-25.667614 5.26279,-10.941051 14.49574,-16.896307 9.23296,-6.00142 21.14347,-6.00142 11.95667,0 21.14346,6.00142 9.23296,5.955256 14.49574,16.896307 5.26279,10.894886 5.26279,25.667614 z m -8.40199,0 q 0,-12.695313 -4.24716,-21.743608 -4.24716,-9.09446 -11.58736,-13.895597 -7.3402,-4.801136 -16.66548,-4.801136 -9.27912,0 -16.61932,4.801136 -7.3402,4.801137 -11.63352,13.849432 -4.24716,9.048295 -4.24716,21.789773 0,12.695312 4.24716,21.743608 4.24716,9.048295 11.58735,13.895596 7.3402,4.8011366 16.66549,4.8011366 9.32528,0 16.66548,-4.8011366 7.38636,-4.801136 11.63352,-13.849432 4.24716,-9.09446 4.201,-21.789772 z"
         id="path324" /><path
         d="m 409.75842,0 v -94.545455 h 30.51491 q 10.06392,0 16.80398,3.647018 6.78622,3.600852 10.20241,10.017755 3.46236,6.370739 3.46236,14.634233 0,8.263494 -3.46236,14.588068 -3.41619,6.324574 -10.15625,9.879262 -6.74005,3.554687 -16.71164,3.554687 h -25.99077 v -7.894176 H 440.181 q 7.38637,0 12.27983,-2.446733 4.93963,-2.446733 7.3402,-6.970881 2.44673,-4.524147 2.44673,-10.710227 0,-6.186079 -2.44673,-10.802557 -2.44673,-4.662642 -7.38636,-7.201704 -4.89347,-2.539063 -12.37216,-2.539063 H 418.39123 V 0 Z M 451.44521,-42.65625 474.71225,0 h -9.97159 l -23.03622,-42.65625 z"
         id="path326" /><path
         d="M 23.663615,105 H 5.9789555 V 44.636364 H 24.724694 q 8.636009,0 14.76669,3.59588 6.160157,3.595881 9.431819,10.316051 3.271662,6.720171 3.271662,16.122515 0,9.490767 -3.360086,16.29936 -3.33061,6.77912 -9.726562,10.40447 Q 32.74174,105 23.663615,105 Z m -12.172941,-4.9517 h 11.848722 q 7.78125,0 13.027699,-3.065345 5.246449,-3.065341 7.869673,-8.753907 2.623224,-5.688565 2.623224,-13.558238 -0.02947,-7.810725 -2.59375,-13.440341 Q 41.731441,55.600852 36.720788,52.59446 31.739609,49.588068 24.400475,49.588068 H 11.490674 Z"
         style="font-size:83px"
         id="path328" /><path
         d="m 82.730331,105.94318 q -6.337003,0 -10.964489,-2.94744 -4.627486,-2.97692 -7.162287,-8.223368 -2.505326,-5.275923 -2.505326,-12.143466 0,-6.838068 2.505326,-12.143466 2.534801,-5.334872 6.985441,-8.341264 4.480113,-3.035866 10.345525,-3.035866 3.684304,0 7.103338,1.355824 3.419034,1.326349 6.130682,4.096946 2.741122,2.741122 4.332742,6.926491 1.591617,4.155895 1.591617,9.84446 v 2.59375 H 65.723584 v -4.627486 h 30.004971 q 0,-4.362215 -1.768466,-7.840198 -1.738991,-3.507458 -4.863281,-5.541194 -3.094815,-2.033735 -7.162287,-2.033735 -4.303267,0 -7.574929,2.299005 -3.271662,2.299006 -5.128551,6.071733 -1.827415,3.772728 -1.856889,8.252841 v 2.770597 q 0,5.393821 1.856889,9.431818 1.886364,4.008523 5.334872,6.219105 3.448509,2.210583 8.164418,2.210583 3.212713,0 5.629616,-1.00213 2.446378,-1.002132 4.096946,-2.682175 1.680043,-1.709517 2.534801,-3.743252 l 4.981179,1.621093 q -1.031605,2.85902 -3.389559,5.275924 -2.32848,2.4169 -5.835938,3.89062 -3.477983,1.44425 -8.017045,1.44425 z"
         style="font-size:83px"
         id="path330" /><path
         d="M 112.61736,121.97727 V 59.727273 h 5.09908 v 8.636008 h 0.61896 q 0.94318,-2.033736 2.59375,-4.155895 1.65057,-2.151633 4.36222,-3.625355 2.74112,-1.473721 6.89701,-1.473721 5.60014,0 9.78551,2.947443 4.21485,2.917969 6.54333,8.193892 2.35795,5.246449 2.35795,12.231889 0,7.014915 -2.35795,12.290838 -2.32848,5.275928 -6.54333,8.223368 -4.18537,2.94744 -9.72656,2.94744 -4.09694,0 -6.86754,-1.47372 -2.74112,-1.47372 -4.45064,-3.62535 -1.68004,-2.181113 -2.59375,-4.244323 h -0.47159 v 25.377483 z m 5.1875,-39.584159 q 0,5.482244 1.62109,9.726562 1.65057,4.214844 4.71591,6.631747 3.09482,2.38743 7.48651,2.38743 4.50959,0 7.6044,-2.475853 3.12429,-2.505327 4.74539,-6.749645 1.65056,-4.244318 1.65056,-9.520241 0,-5.216975 -1.62109,-9.402344 -1.59162,-4.185369 -4.71591,-6.631747 -3.12429,-2.475852 -7.66335,-2.475852 -4.42117,0 -7.51598,2.387429 -3.09482,2.357954 -4.71591,6.543323 -1.59162,4.155895 -1.59162,9.579191 z"
         style="font-size:83px"
         id="path332" /><path
         d="M 191.16671,87.698509 V 59.727273 h 5.24645 V 105 h -5.24645 v -7.51598 h -0.41264 q -1.59162,3.47798 -5.04013,5.80646 -3.44851,2.29901 -8.42969,2.29901 -4.33274,0 -7.69283,-1.88636 -3.36008,-1.91584 -5.27592,-5.600147 -1.91584,-3.684304 -1.91584,-9.048651 V 59.727273 h 5.24645 v 29.002841 q 0,5.305397 3.12429,8.547585 3.12429,3.212711 8.01705,3.212711 3.06534,0 5.89488,-1.47372 2.82955,-1.473721 4.65696,-4.303267 1.82742,-2.85902 1.82742,-7.014914 z"
         style="font-size:83px"
         id="path334" /><path
         d="M 210.32504,105 V 59.727273 h 5.27592 V 105 Z m 2.68217,-53.053977 q -1.62109,0 -2.7706,-1.090554 -1.1495,-1.120029 -1.1495,-2.682174 0,-1.562144 1.1495,-2.652698 1.14951,-1.120029 2.7706,-1.120029 1.62109,0 2.7706,1.120029 1.1495,1.090554 1.1495,2.652698 0,1.562145 -1.1495,2.682174 -1.14951,1.090554 -2.7706,1.090554 z"
         style="font-size:83px"
         id="path336" /><path
         d="m 259.93056,69.660156 -4.80434,1.355824 q -0.70738,-2.033736 -2.00426,-3.684304 -1.29687,-1.650568 -3.38956,-2.623224 -2.06321,-0.972657 -5.12855,-0.972657 -4.59801,0 -7.54545,2.181108 -2.94744,2.181108 -2.94744,5.629617 0,2.917969 2.00426,4.745383 2.03373,1.797941 6.24858,2.85902 l 6.83806,1.680043 q 5.68857,1.385298 8.51811,4.39169 2.85902,3.006392 2.85902,7.545455 0,3.831676 -2.12215,6.808594 -2.12216,2.976915 -5.92437,4.686435 -3.77272,1.68004 -8.7539,1.68004 -6.63175,0 -10.93502,-2.97692 -4.30326,-3.006388 -5.51171,-8.665479 l 5.04012,-1.237926 q 0.97266,4.037997 3.80221,6.101207 2.85902,2.063208 7.51598,2.063208 5.21697,0 8.34126,-2.328477 3.12429,-2.357955 3.12429,-5.894887 0,-2.741122 -1.82742,-4.598011 -1.82741,-1.886364 -5.54119,-2.770597 l -7.39808,-1.768466 q -5.89489,-1.414772 -8.72443,-4.480113 -2.82955,-3.065341 -2.82955,-7.604404 0,-3.743253 2.03374,-6.572798 2.03373,-2.85902 5.60014,-4.480114 3.56641,-1.621093 8.13494,-1.621093 6.21911,0 9.93289,2.829545 3.74325,2.800071 5.39382,7.722301 z"
         style="font-size:83px"
         id="path338" /><path
         d="M 313.83937,44.636364 V 105 h -5.51172 V 50.413352 h -0.35369 l -14.14773,9.402344 v -5.71804 l 14.26563,-9.461292 z"
         style="font-size:83px"
         id="path340" /><path
         d="m 350.35817,43.81108 q 3.77272,0.02947 7.30966,1.53267 3.5664,1.473722 6.42542,4.774858 2.85902,3.271662 4.53906,8.724432 1.68005,5.423295 1.68005,13.351917 0,7.398083 -1.29688,13.558239 -1.29687,6.160156 -3.89062,10.669744 -2.56428,4.48011 -6.48438,6.95597 -3.89062,2.44637 -9.1076,2.44637 -4.86328,0 -8.63601,-2.03373 -3.74325,-2.03374 -6.07173,-5.629618 -2.32848,-3.625355 -2.88849,-8.370739 h 5.42329 q 0.79581,4.833807 3.89063,7.958097 3.12429,3.12429 8.28231,3.12429 7.39809,0 11.49503,-6.897018 4.09695,-6.897017 4.09695,-19.629971 h -0.38317 q -1.41477,2.652699 -3.71378,4.627486 -2.26953,1.974787 -5.1875,3.094815 -2.91797,1.090554 -6.16016,1.090554 -5.04012,0 -9.22549,-2.534801 -4.18537,-2.564276 -6.6907,-6.98544 -2.50532,-4.45064 -2.50532,-10.139205 0,-5.364347 2.35795,-9.84446 2.38743,-4.509588 6.66122,-7.191762 4.30327,-2.711647 10.08026,-2.652698 z m 0,4.951704 q -3.9201,0 -7.04439,2.004261 -3.09482,1.974787 -4.92223,5.334873 -1.79794,3.33061 -1.79794,7.398082 0,4.096946 1.79794,7.457031 1.82741,3.330611 4.92223,5.305398 3.12429,1.945312 7.04439,1.945312 3.00639,0 5.60014,-1.208451 2.59375,-1.237926 4.48011,-3.360085 1.91584,-2.12216 2.8885,-4.804333 1.00213,-2.711648 0.79581,-5.688565 -0.3537,-4.126421 -2.21059,-7.368608 -1.82741,-3.271662 -4.8338,-5.128551 -2.97692,-1.886364 -6.72017,-1.886364 z"
         style="font-size:83px"
         id="path342" /><path
         d="m 401.46678,105.82528 q -5.77699,0 -10.28658,-2.1811 -4.50959,-2.18111 -7.07386,-5.953839 -2.56428,-3.802202 -2.56428,-8.57706 0,-3.743253 1.56215,-6.98544 1.56214,-3.271662 4.30326,-5.482244 2.74112,-2.240057 6.16016,-2.917969 v -0.324219 q -4.45064,-1.296875 -7.16229,-5.099077 -2.71165,-3.831676 -2.68217,-8.694957 -0.0295,-4.509588 2.299,-8.075994 2.32848,-3.566407 6.33701,-5.629617 4.03799,-2.092684 9.1076,-2.092684 5.04012,0 9.04865,2.092684 4.00852,2.06321 6.337,5.629617 2.35795,3.566406 2.38743,8.075994 -0.0295,4.833807 -2.74112,8.694957 -2.71165,3.831677 -7.13282,5.099077 v 0.324219 q 3.41904,0.648437 6.13069,2.888494 2.71164,2.240057 4.30326,5.511719 1.59162,3.242187 1.59162,6.98544 0,4.774858 -2.59375,8.57706 -2.56427,3.772729 -7.07386,5.953839 -4.48012,2.1811 -10.2571,2.1811 z m 0,-4.9517 q 4.30326,0 7.54545,-1.532671 3.27166,-1.562145 5.09908,-4.273793 1.85689,-2.711647 1.85689,-6.219105 0,-3.625355 -1.91584,-6.4549 -1.91584,-2.85902 -5.1875,-4.509588 -3.27166,-1.680043 -7.39808,-1.680043 -4.12642,0 -7.42756,1.680043 -3.27166,1.650568 -5.1875,4.509588 -1.88636,2.829545 -1.88636,6.4549 0,3.507458 1.79794,6.219105 1.82741,2.711648 5.09907,4.273793 3.30114,1.532671 7.60441,1.532671 z m 0,-29.386009 q 3.53693,0 6.337,-1.503196 2.80007,-1.503196 4.42116,-4.096946 1.65057,-2.623224 1.68005,-5.953835 -0.0295,-3.301137 -1.65057,-5.835938 -1.6211,-2.564275 -4.42117,-3.979048 -2.77059,-1.444247 -6.36647,-1.444247 -3.59588,0 -6.42543,1.444247 -2.80007,1.414773 -4.42116,3.979048 -1.59162,2.534801 -1.56215,5.835938 -0.0295,3.330611 1.59162,5.953835 1.65057,2.59375 4.45064,4.096946 2.82954,1.503196 6.36648,1.503196 z"
         style="font-size:83px"
         id="path344" /><path
         d="m 435.33288,105 27.49964,-55.028764 v -0.383168 h -31.68501 v -4.951704 h 37.462 v 5.1875 L 441.13934,105 Z"
         style="font-size:83px"
         id="path346" /></g></g></svg>
