<svg width="780" height="780" xmlns="http://www.w3.org/2000/svg" xmlns:xlink="http://www.w3.org/1999/xlink" xml:space="preserve" overflow="hidden"><defs><clipPath id="clip0"><rect x="663" y="889" width="780" height="780"/></clipPath></defs><g clip-path="url(#clip0)" transform="translate(-663 -889)"><rect x="663" y="889" width="780" height="779.999" fill="#FFFFFF" fill-opacity="0"/><g><g><g><g><path d="M777.89 110.809 817.051 110.809 817.051 149.971 777.89 149.971Z" fill-rule="evenodd" transform="matrix(1.00042 0 0 1 625.603 1038.19)"/><path d="M777.89 168.661C807.639 169 816.909 191.357 817.051 207.375L817.051 369.809 777.89 369.809Z" fill="#3369E7" fill-rule="evenodd" transform="matrix(1.00042 0 0 1 625.603 1038.19)"/><path d="M232.338 195.556C230.989 195.556 229.776 195.829 228.7 196.374 227.625 196.92 226.777 197.659 226.155 198.591 225.533 199.524 225.222 200.584 225.222 201.772 225.222 202.921 225.518 203.941 226.111 204.829 226.704 205.718 227.538 206.416 228.614 206.923 229.689 207.43 230.931 207.684 232.338 207.684 233.746 207.684 234.983 207.43 236.049 206.923 237.114 206.416 237.949 205.718 238.551 204.829 239.154 203.941 239.455 202.921 239.455 201.772 239.455 200.584 239.142 199.524 238.515 198.591 237.888 197.659 237.04 196.92 235.969 196.374 234.899 195.829 233.689 195.556 232.338 195.556ZM99.0599 189.499C97.6136 189.499 96.384 189.888 95.3716 190.666 94.3587 191.443 93.5897 192.516 93.0642 193.882 92.5386 195.249 92.276 196.821 92.276 198.599 92.276 200.396 92.5435 201.987 93.0788 203.373 93.6138 204.759 94.3854 205.846 95.3929 206.633 96.4009 207.421 97.6234 207.814 99.0599 207.814 100.536 207.814 101.782 207.406 102.799 206.59 103.817 205.774 104.593 204.67 105.128 203.279 105.663 201.888 105.931 200.328 105.931 198.599 105.931 196.889 105.668 195.348 105.143 193.977 104.617 192.605 103.843 191.516 102.821 190.709 101.799 189.902 100.545 189.499 99.0599 189.499ZM74.9506 189.499C73.5426 189.499 72.3032 189.876 71.233 190.629 70.1627 191.383 69.3261 192.378 68.7231 193.614 68.4218 194.233 68.1948 194.88 68.0417 195.556L67.8713 197.077 81.7202 197.077C81.7202 195.648 81.4332 194.361 80.8596 193.216 80.2855 192.071 79.4902 191.165 78.4729 190.499 77.4552 189.833 76.2812 189.499 74.9506 189.499ZM137.838 187.456 140.442 187.456C140.437 194.875 140.432 202.294 140.427 209.712L137.838 209.712ZM114.437 187.456 117.012 187.456 117.012 201.714C117.012 203.453 117.523 204.851 118.545 205.909 119.568 206.967 120.879 207.495 122.48 207.495 123.483 207.495 124.447 207.254 125.373 206.771 126.299 206.288 127.061 205.58 127.658 204.648 128.257 203.716 128.556 202.569 128.556 201.207L128.556 187.456 131.13 187.456 131.13 209.712 128.556 209.712 128.556 206.017 128.353 206.017C127.832 207.157 127.007 208.106 125.879 208.865 124.751 209.623 123.372 210.002 121.742 210.002 120.325 210.002 119.066 209.691 117.967 209.068 116.868 208.445 116.004 207.529 115.378 206.322 114.751 205.114 114.437 203.631 114.437 201.873ZM154.564 187.152C156.599 187.152 158.226 187.613 159.446 188.536 160.666 189.458 161.546 190.726 162.086 192.339L159.728 193.006C159.497 192.339 159.169 191.736 158.745 191.194 158.32 190.654 157.768 190.224 157.088 189.905 156.408 189.586 155.567 189.427 154.564 189.427 153.06 189.427 151.826 189.784 150.861 190.499 149.897 191.214 149.414 192.136 149.414 193.266 149.414 194.223 149.745 194.998 150.405 195.592 151.066 196.186 152.086 196.657 153.465 197.005L156.821 197.831C158.682 198.285 160.078 199.004 161.008 199.99 161.939 200.975 162.404 202.212 162.404 203.699 162.404 204.955 162.057 206.07 161.363 207.046 160.668 208.022 159.702 208.787 158.463 209.343 157.223 209.898 155.789 210.176 154.159 210.176 151.989 210.176 150.2 209.686 148.793 208.705 147.385 207.725 146.483 206.307 146.087 204.452L148.561 203.844C148.88 205.167 149.504 206.167 150.434 206.843 151.365 207.519 152.592 207.858 154.116 207.858 155.823 207.858 157.187 207.474 158.209 206.706 159.231 205.938 159.743 204.974 159.743 203.815 159.743 202.917 159.444 202.161 158.846 201.547 158.248 200.934 157.342 200.482 156.126 200.193L152.496 199.323C150.567 198.859 149.14 198.126 148.214 197.121 147.288 196.116 146.825 194.87 146.825 193.383 146.825 192.156 147.158 191.076 147.823 190.144 148.489 189.212 149.405 188.48 150.572 187.949 151.739 187.418 153.069 187.152 154.564 187.152ZM99.3349 187.152C101.167 187.152 102.77 187.632 104.145 188.594 105.519 189.555 106.589 190.898 107.356 192.622 108.122 194.346 108.506 196.353 108.506 198.642 108.506 200.941 108.122 202.955 107.356 204.684 106.589 206.414 105.519 207.761 104.145 208.727 102.77 209.693 101.177 210.176 99.3638 210.176 98.0234 210.176 96.9024 209.934 96.0008 209.451 95.0992 208.968 94.3707 208.372 93.8162 207.662 93.2617 206.952 92.8354 206.259 92.5364 205.583L92.305 205.583 92.305 218.058 89.7301 218.058 89.7301 187.456 92.2324 187.456 92.2324 191.702 92.5364 191.702C92.8448 191.035 93.2693 190.352 93.8091 189.652 94.3494 188.951 95.0654 188.359 95.9572 187.876 96.849 187.393 97.9754 187.152 99.3349 187.152ZM74.9506 187.152C76.1557 187.152 77.3181 187.372 78.4365 187.811 79.5552 188.251 80.5605 188.922 81.4523 189.825 82.3446 190.728 83.0508 191.863 83.5715 193.23 84.0926 194.597 84.353 196.213 84.353 198.077L84.353 199.352 67.8344 199.352 68.0342 201.517C68.1873 202.288 68.4169 203.003 68.7231 203.663 69.3354 204.981 70.2059 206.003 71.334 206.727 72.4625 207.452 73.798 207.814 75.3409 207.814 76.392 207.814 77.3155 207.65 78.1111 207.321 78.9068 206.993 79.577 206.551 80.1217 205.996 80.6664 205.44 81.079 204.829 81.3584 204.163L83.8029 204.96C83.4656 205.897 82.9133 206.761 82.147 207.553 81.3802 208.345 80.4257 208.98 79.2829 209.459 78.1401 209.937 76.8259 210.176 75.3409 210.176 73.2676 210.176 71.4742 209.691 69.9602 208.72 68.4458 207.749 67.2768 206.402 66.4521 204.677 65.6275 202.953 65.2154 200.965 65.2154 198.715 65.2154 196.474 65.6275 194.481 66.4521 192.738 67.2768 190.994 68.4196 189.627 69.8806 188.637 71.3415 187.647 73.0313 187.152 74.9506 187.152ZM40.2167 182.472 40.2167 207.278 46.0317 207.278C48.5776 207.278 50.7088 206.776 52.4252 205.771 54.1416 204.767 55.4291 203.332 56.2875 201.468 57.1455 199.603 57.575 197.381 57.575 194.803 57.5652 192.242 57.1433 190.04 56.3093 188.195 55.4749 186.35 54.2404 184.935 52.6059 183.95 50.9713 182.964 48.9536 182.472 46.5523 182.472ZM207.385 182.066C206.103 182.066 204.953 182.392 203.935 183.044 202.918 183.696 202.113 184.57 201.52 185.667 200.926 186.763 200.63 187.978 200.63 189.311 200.63 190.654 200.926 191.873 201.52 192.97 202.113 194.066 202.918 194.935 203.935 195.578 204.953 196.22 206.103 196.541 207.385 196.541 208.369 196.541 209.285 196.341 210.134 195.94 210.982 195.539 211.718 194.991 212.339 194.295 212.962 193.6 213.434 192.81 213.757 191.926 214.08 191.042 214.208 190.113 214.14 189.137 214.025 187.785 213.666 186.575 213.063 185.507 212.46 184.44 211.67 183.599 210.691 182.986 209.712 182.373 208.61 182.066 207.385 182.066ZM232.338 182.023C231.162 182.023 230.113 182.257 229.192 182.725 228.271 183.194 227.548 183.846 227.023 184.682 226.497 185.517 226.239 186.476 226.249 187.558 226.239 188.649 226.502 189.623 227.037 190.477 227.572 191.332 228.3 192.006 229.222 192.499 230.142 192.991 231.181 193.237 232.338 193.237 233.496 193.237 234.532 192.991 235.449 192.499 236.364 192.006 237.09 191.332 237.626 190.477 238.161 189.623 238.433 188.649 238.443 187.558 238.433 186.476 238.163 185.517 237.633 184.682 237.102 183.846 236.381 183.194 235.47 182.725 234.559 182.257 233.515 182.023 232.338 182.023ZM246.689 180.037 265.074 180.037 265.074 182.588 251.593 209.712 248.743 209.712 262.239 182.66 262.239 182.472 246.689 182.472ZM186.766 180.037 189.587 180.037 189.587 209.712 186.882 209.712 186.882 182.877 186.709 182.877 179.765 187.499 179.765 184.689ZM37.5117 180.037 46.7116 180.037C49.5371 180.037 51.9553 180.627 53.9659 181.805 55.9765 182.984 57.5171 184.674 58.5874 186.876 59.6576 189.079 60.193 191.721 60.193 194.803 60.193 197.913 59.6456 200.582 58.5513 202.808 57.4566 205.034 55.8656 206.742 53.7776 207.93 51.69 209.118 49.161 209.712 46.191 209.712L37.5117 209.712ZM139.155 179.907C139.685 179.917 140.141 180.103 140.521 180.465 140.902 180.827 141.088 181.264 141.078 181.776 141.088 182.278 140.902 182.715 140.521 183.088 140.141 183.46 139.689 183.646 139.169 183.646 138.629 183.636 138.168 183.448 137.787 183.08 137.407 182.713 137.221 182.278 137.231 181.776 137.221 181.264 137.407 180.825 137.787 180.457 138.168 180.091 138.624 179.907 139.155 179.907ZM232.338 179.632C233.988 179.632 235.468 179.972 236.779 180.653 238.091 181.334 239.13 182.259 239.897 183.428 240.663 184.597 241.051 185.92 241.061 187.398 241.051 188.982 240.603 190.405 239.716 191.665 238.829 192.926 237.662 193.764 236.215 194.18L236.215 194.339C237.334 194.551 238.337 195.025 239.224 195.758 240.111 196.493 240.815 197.393 241.336 198.461 241.856 199.529 242.117 200.675 242.117 201.902 242.117 203.467 241.695 204.87 240.851 206.111 240.007 207.353 238.85 208.331 237.38 209.046 235.909 209.76 234.229 210.118 232.338 210.118 230.448 210.118 228.766 209.76 227.29 209.046 225.815 208.331 224.657 207.353 223.819 206.111 222.98 204.87 222.56 203.467 222.56 201.902 222.56 200.675 222.816 199.529 223.327 198.461 223.838 197.393 224.542 196.495 225.439 195.766 226.336 195.037 227.344 194.561 228.462 194.339L228.462 194.18C227.006 193.754 225.834 192.916 224.947 191.665 224.06 190.414 223.621 188.992 223.631 187.398 223.621 185.92 223.997 184.597 224.759 183.428 225.521 182.259 226.56 181.334 227.876 180.653 229.192 179.972 230.68 179.632 232.338 179.632ZM207.385 179.632C208.619 179.641 209.818 179.89 210.98 180.378 212.142 180.866 213.191 181.648 214.126 182.725 215.062 183.802 215.804 185.232 216.354 187.014 216.903 188.797 217.178 190.987 217.178 193.585 217.178 196.01 216.966 198.231 216.542 200.25 216.118 202.27 215.483 204.015 214.64 205.488 213.796 206.962 212.735 208.101 211.457 208.908 210.18 209.715 208.687 210.118 206.98 210.118 205.389 210.118 203.979 209.785 202.749 209.118 201.52 208.452 200.524 207.527 199.762 206.343 199 205.16 198.528 203.791 198.344 202.236L201.006 202.236C201.266 203.82 201.906 205.124 202.923 206.148 203.94 207.172 205.293 207.684 206.98 207.684 209.401 207.684 211.281 206.554 212.622 204.293 213.962 202.033 214.633 198.816 214.633 194.643L214.444 194.643C213.981 195.512 213.376 196.271 212.629 196.918 211.881 197.565 211.031 198.07 210.076 198.432 209.121 198.794 208.113 198.975 207.053 198.975 205.404 198.975 203.894 198.558 202.525 197.722 201.156 196.887 200.061 195.742 199.242 194.288 198.422 192.834 198.012 191.175 198.012 189.311 198.012 187.553 198.4 185.937 199.176 184.464 199.953 182.991 201.042 181.813 202.445 180.929 203.848 180.045 205.495 179.612 207.385 179.632ZM240.572 115.279 240.572 135.368 251.317 135.368C253.746 135.368 255.768 134.966 257.384 134.16 259 133.354 260.207 132.207 261.004 130.717 261.8 129.227 262.199 127.463 262.199 125.426 262.199 123.389 261.796 121.607 260.992 120.079 260.188 118.551 258.978 117.369 257.361 116.533 255.745 115.697 253.708 115.279 251.249 115.279ZM205.62 114.823C202.57 114.823 199.838 115.613 197.426 117.194 195.012 118.775 193.104 121.055 191.7 124.035 190.296 127.015 189.595 130.603 189.595 134.798 189.595 138.979 190.292 142.559 191.689 145.539 193.085 148.518 194.989 150.802 197.403 152.391 199.816 153.98 202.555 154.774 205.62 154.774 208.686 154.774 211.429 153.983 213.85 152.403 216.271 150.822 218.179 148.537 219.575 145.55 220.972 142.563 221.662 138.979 221.647 134.798 221.647 130.618 220.949 127.034 219.553 124.047 218.157 121.059 216.252 118.775 213.839 117.194 211.426 115.613 208.686 114.823 205.62 114.823ZM236.315 111.448 251.363 111.448C254.671 111.448 257.437 112.044 259.661 113.238 261.884 114.431 263.561 116.08 264.692 118.186 265.822 120.292 266.388 122.705 266.388 125.426 266.388 128.148 265.822 130.549 264.692 132.632 263.561 134.715 261.888 136.341 259.672 137.512 259.118 137.804 258.531 138.061 257.91 138.28L257.577 138.374 268.345 158.149 263.428 158.149 253.204 139.185 251.431 139.268 240.572 139.268 240.572 158.149 236.315 158.149ZM170.874 111.448 175.131 111.448 175.131 158.149 170.874 158.149ZM122.127 111.448 126.247 111.448 153.884 150.601 154.225 150.601C154.233 137.55 154.241 124.499 154.248 111.448L158.437 111.448 158.437 158.149 154.294 158.149 126.748 119.041 126.384 119.064 126.384 158.149 122.104 158.149C122.112 142.582 122.119 127.015 122.127 111.448ZM74.7157 111.448 78.9727 111.448 78.9727 142.073C78.9727 144.55 79.5267 146.759 80.6344 148.697 81.7425 150.635 83.3018 152.159 85.3124 153.269 87.3234 154.379 89.6798 154.934 92.3811 154.934 95.0823 154.934 97.4427 154.379 99.4608 153.269 101.479 152.159 103.039 150.635 104.139 148.697 105.239 146.759 105.789 144.55 105.789 142.073L105.789 111.448 110.046 111.448 110.046 142.369C110.046 145.546 109.303 148.386 107.816 150.886 106.328 153.387 104.26 155.355 101.612 156.792 98.9637 158.229 95.8869 158.947 92.3811 158.947 88.8903 158.947 85.8171 158.225 83.1612 156.781 80.5053 155.337 78.4338 153.368 76.9465 150.875 75.4593 148.382 74.7157 145.546 74.7157 142.369ZM58.3248 111.448 62.5818 111.448 62.5818 145.128C62.5667 148.169 62.0207 150.704 60.9428 152.733 59.8655 154.763 58.3782 156.279 56.4811 157.282 54.584 158.286 52.4061 158.787 49.9474 158.787 47.5345 158.787 45.3793 158.339 43.4824 157.442 41.5853 156.545 40.0942 155.283 39.0091 153.657 37.924 152.03 37.3814 150.122 37.3814 147.933L41.5701 147.933C41.5701 149.317 41.9343 150.536 42.6628 151.593 43.3913 152.65 44.3891 153.474 45.6565 154.067 46.9235 154.66 48.3542 154.957 49.9474 154.957 51.6019 154.957 53.0549 154.607 54.3072 153.908 55.559 153.208 56.5416 152.133 57.255 150.681 57.9683 149.229 58.3248 147.378 58.3248 145.128ZM205.62 110.809C209.551 110.809 213.03 111.794 216.058 113.762 219.086 115.731 221.465 118.513 223.195 122.108 224.925 125.703 225.79 129.934 225.79 134.798 225.79 139.663 224.925 143.893 223.195 147.488 221.465 151.084 219.086 153.866 216.058 155.834 213.03 157.803 209.551 158.787 205.62 158.787 201.69 158.787 198.211 157.803 195.183 155.834 192.155 153.866 189.78 151.084 188.058 147.488 186.335 143.893 185.474 139.663 185.474 134.798 185.474 129.934 186.335 125.703 188.058 122.108 189.78 118.513 192.159 115.731 195.195 113.762 198.23 111.794 201.705 110.809 205.62 110.809Z" fill-rule="evenodd" transform="matrix(1.00042 0 0 1 625.603 1038.19)"/><path d="M326.09 111.254 369.364 111.254 262.667 369.809 219.393 369.809Z" fill-rule="evenodd" transform="matrix(1.00042 0 0 1 625.603 1038.19)"/><path d="M381.034 132.17 475.723 369.809 433.684 369.809 405.978 300.216 316.852 300.216C318.217 255.94 365.208 261.107 390.527 261.406L360.089 184.95Z" fill="#3369E7" fill-rule="evenodd" transform="matrix(1.00042 0 0 1 625.603 1038.19)"/><path d="M538.915 110.809 676.768 110.809C709.032 111.531 714.541 142.117 714.697 149.971L538.915 149.971Z" fill="#3369E7" fill-rule="evenodd" transform="matrix(1.00042 0 0 1 625.603 1038.19)"/><path d="M538.915 277.691 578.077 277.691 578.077 330.648 538.915 330.648Z" transform="matrix(1.00042 0 0 1 625.603 1038.19)"/><path d="M538.915 330.648 577.663 330.648 577.663 330.67 676.902 330.67C708.124 331.476 714.888 360.316 714.693 369.756L673.008 369.809 589.928 369.809 538.915 369.809Z" fill="#3369E7" fill-rule="evenodd" transform="matrix(1.00042 0 0 1 625.603 1038.19)"/><path d="M538.915 220.728 577.445 220.728 578.317 220.728 604.96 220.728C631.029 221.708 638.973 251.392 639.044 259.89L538.915 259.89Z" fill="#3369E7" fill-rule="evenodd" transform="matrix(1.00042 0 0 1 625.603 1038.19)"/><path d="M538.915 168.216 577.632 168.216 577.632 220.728 538.915 220.728Z" fill-rule="evenodd" transform="matrix(1.00042 0 0 1 625.603 1038.19)"/><path d="M538.915 167.771 578.077 167.771 578.077 220.728 538.915 220.728Z" transform="matrix(1.00042 0 0 1 625.603 1038.19)"/></g></g></g></g></g></svg>